<?xml version="1.0" encoding="UTF-8" standalone="no"?>
<svg
   xmlns:dc="http://purl.org/dc/elements/1.1/"
   xmlns:cc="http://creativecommons.org/ns#"
   xmlns:rdf="http://www.w3.org/1999/02/22-rdf-syntax-ns#"
   xmlns:svg="http://www.w3.org/2000/svg"
   xmlns="http://www.w3.org/2000/svg"
   xmlns:sodipodi="http://sodipodi.sourceforge.net/DTD/sodipodi-0.dtd"
   xmlns:inkscape="http://www.inkscape.org/namespaces/inkscape"
   version="1.0"
   width="400"
   height="400"
   id="svg2"
   sodipodi:version="0.32"
   inkscape:version="0.92.3 (2405546, 2018-03-11)"
   sodipodi:docname="Wikimedia-Colombia-logo.svg"
   inkscape:output_extension="org.inkscape.output.svg.inkscape"
   inkscape:export-filename="C:\Documents and Settings\Administrador\My Documents\cass\Wikimedia_Colombia.png"
   inkscape:export-xdpi="90"
   inkscape:export-ydpi="90">
  <metadata
     id="metadata17">
    <rdf:RDF>
      <cc:Work
         rdf:about="">
        <dc:format>image/svg+xml</dc:format>
        <dc:type
           rdf:resource="http://purl.org/dc/dcmitype/StillImage" />
      </cc:Work>
    </rdf:RDF>
  </metadata>
  <defs
     id="defs15">
    <inkscape:perspective
       sodipodi:type="inkscape:persp3d"
       inkscape:vp_x="0 : 200 : 1"
       inkscape:vp_y="0 : 1000 : 0"
       inkscape:vp_z="400 : 200 : 1"
       inkscape:persp3d-origin="200 : 133.33333 : 1"
       id="perspective19" />
    <inkscape:perspective
       id="perspective2492"
       inkscape:persp3d-origin="372.04724 : 350.78739 : 1"
       inkscape:vp_z="744.09448 : 526.18109 : 1"
       inkscape:vp_y="0 : 1000 : 0"
       inkscape:vp_x="0 : 526.18109 : 1"
       sodipodi:type="inkscape:persp3d" />
  </defs>
  <sodipodi:namedview
     inkscape:window-height="706"
     inkscape:window-width="1366"
     inkscape:pageshadow="2"
     inkscape:pageopacity="0.0"
     guidetolerance="10.0"
     gridtolerance="10.0"
     objecttolerance="10.0"
     borderopacity="1.0"
     bordercolor="#666666"
     pagecolor="#ffffff"
     id="base"
     showgrid="false"
     inkscape:zoom="1"
     inkscape:cx="200"
     inkscape:cy="200"
     inkscape:window-x="0"
     inkscape:window-y="34"
     inkscape:current-layer="svg2"
     inkscape:window-maximized="1" />
  <g
     id="g2421"
     style="fill:#000000">
    <circle
       id="circle4"
       r="45"
       cy="61.599998"
       cx="200.724"
       sodipodi:cx="200.724"
       sodipodi:cy="61.599998"
       sodipodi:rx="45"
       sodipodi:ry="45"
       style="fill:#000000" />
    <path
       id="path6"
       d="M 291.578,51.758 L 266.08,77.255 C 286.705,95.398 299.725,121.98201 299.725,151.61 C 299.725,206.28601 255.401,250.61 200.724,250.61 C 146.048,250.61 101.724,206.28601 101.724,151.61 C 101.724,121.98201 114.744,95.398009 135.369,77.255009 L 109.871,51.757009 C 82.748,76.449009 65.724,112.04101 65.724,151.61 C 65.724,226.16901 126.165,286.61 200.724,286.61 C 275.284,286.61 335.725,226.16901 335.725,151.61 C 335.725,112.04201 318.7,76.45 291.578,51.758 z"
       style="fill:#000000" />
    <path
       id="path8"
       d="M 191.724,133.61101 L 148.14,90.026009 C 130.758,104.88201 119.724,126.95201 119.724,151.61 C 119.724,193.30101 151.227,227.62201 191.724,232.10001 L 191.724,133.61101 z M 253.31,90.026009 L 209.725,133.61 L 209.725,232.10001 C 250.223,227.62101 281.725,193.30101 281.725,151.61 C 281.725,126.95201 270.691,104.88301 253.31,90.026009 z"
       style="fill:#000000" />
    <path
       id="path10"
       d="M 379.047,340.05501 L 367.344,340.05501 L 364.254,332.36701 L 347.793,332.36701 L 344.648,340.05501 L 332.945,340.05501 L 349.707,302.14901 L 362.34,302.14901 L 379.047,340.05501 z M 361.629,325.77401 L 356.078,311.93001 L 350.473,325.77401 L 361.629,325.77401 z M 327.836,340.05501 L 316.43,340.05501 L 316.43,302.14901 L 327.836,302.14901 L 327.836,340.05501 z M 309.316,321.79901 C 309.316,325.68001 308.609,328.79501 307.196,331.14501 C 305.783,333.49701 304.119,335.4 302.205,336.858 C 299.49,338.98901 295.693,340.05501 290.812,340.05501 L 290.239,340.05501 L 270.379,340.05501 L 270.379,302.14901 L 286.114,302.14901 C 288.482,302.14901 290.508,302.27201 292.193,302.52001 C 293.877,302.76601 295.393,303.11401 296.741,303.56101 C 298.089,304.01001 299.236,304.51201 300.183,305.07101 C 301.13,305.62801 301.976,306.22701 302.724,306.86701 C 304.018,307.92501 305.154,309.17401 306.128,310.61401 C 307.105,312.05401 307.88,313.72201 308.454,315.61801 C 309.029,317.51401 309.316,319.57501 309.316,321.79901 z M 297.691,321.30701 C 297.691,318.22801 297.103,315.82801 295.928,314.10601 C 294.753,312.38401 293.341,311.23101 291.692,310.64901 C 290.043,310.06501 288.363,309.77401 286.65,309.77401 L 281.785,309.77401 L 281.785,332.21201 L 286.65,332.21201 C 289.638,332.21201 292.224,331.50101 294.412,330.08101 C 296.598,328.65901 297.691,325.73501 297.691,321.30701 z M 262.699,340.05501 L 234.148,340.05501 L 234.148,302.14901 L 262.234,302.14901 L 262.234,309.77401 L 245.554,309.77401 L 245.554,316.71201 L 261.468,316.71201 L 261.468,324.33701 L 245.554,324.33701 L 245.554,332.43101 L 262.699,332.43101 L 262.699,340.05501 z M 224.531,340.05501 L 213.124,340.05501 L 213.124,318.08601 L 202.809,330.80501 L 201.906,330.80501 L 191.563,318.08601 L 191.563,340.05501 L 180.469,340.05501 L 180.469,302.14901 L 190.825,302.14901 L 202.48,316.36801 L 214.189,302.14901 L 224.532,302.14901 L 224.532,340.05501 L 224.531,340.05501 z M 170.882,340.05501 L 159.476,340.05501 L 159.476,302.14901 L 170.882,302.14901 L 170.882,340.05501 z M 154.445,340.05501 L 140.5,340.05501 L 126.008,322.30501 L 126.008,340.05501 L 114.602,340.05501 L 114.602,302.14901 L 126.008,302.14901 L 126.008,319.11801 L 139.735,302.14901 L 152.149,302.14901 L 138.04,319.89901 L 154.445,340.05501 z M 104.984,340.05501 L 93.578,340.05501 L 93.578,302.14901 L 104.984,302.14901 L 104.984,340.05501 L 104.984,340.05501 z M 88.273,302.14901 L 71.867,340.55501 L 65.25,340.55501 L 55.406,318.21101 L 45.316,340.55501 L 38.644,340.55501 L 22.566,302.14901 L 34.406,302.14901 L 42.281,323.14901 L 51.304,302.14901 L 59.48,302.14901 L 68.339,323.14901 L 76.569,302.14901 L 88.273,302.14901 z"
       style="fill:#000000" />
    <path
       id="text2392"
       d="M 127.2002,373.13574 L 127.2002,378.05029 C 124.38572,379.54346 121.43699,380.29004 118.354,380.29004 C 114.3579,380.29004 111.17553,379.18628 108.80688,376.97876 C 106.43823,374.77125 105.2539,372.05079 105.25391,368.81738 C 105.2539,365.584 106.50268,362.83937 109.00024,360.5835 C 111.49779,358.32766 114.76073,357.19973 118.78906,357.19971 C 122.00096,357.19973 124.71873,357.86037 126.94238,359.18164 L 126.94238,364.19287 C 124.21385,362.65676 121.63035,361.88869 119.19189,361.88867 C 116.79637,361.88869 114.83861,362.53054 113.3186,363.81421 C 111.79858,365.09792 111.03857,366.73341 111.03857,368.7207 C 111.03857,370.71876 111.78783,372.36768 113.28638,373.66748 C 114.7849,374.96729 116.70507,375.61719 119.04688,375.61719 C 120.20701,375.61719 121.3242,375.46412 122.39844,375.15796 C 123.47264,374.85181 125.07322,374.17774 127.2002,373.13574 L 127.2002,373.13574 z M 143.61963,357.19971 C 147.45457,357.19973 150.55906,358.3572 152.93311,360.67212 C 155.3071,362.98708 156.49411,365.68068 156.49414,368.75293 C 156.49411,371.86817 155.29099,374.56983 152.88477,376.85791 C 150.47849,379.146 147.39012,380.29004 143.61963,380.29004 C 139.80614,380.29004 136.70165,379.15137 134.30615,376.87402 C 131.91064,374.59669 130.71289,371.88966 130.71289,368.75293 C 130.71289,365.66994 131.90259,362.97365 134.28198,360.66406 C 136.66137,358.35451 139.77392,357.19973 143.61963,357.19971 L 143.61963,357.19971 z M 143.61963,375.61719 C 145.74657,375.61719 147.45994,374.98609 148.75977,373.72388 C 150.05955,372.46168 150.70945,370.8047 150.70947,368.75293 C 150.70945,366.69044 150.05955,365.03078 148.75977,363.77393 C 147.45994,362.51711 145.74657,361.88869 143.61963,361.88867 C 141.48192,361.88869 139.76049,362.51711 138.45532,363.77393 C 137.15014,365.03078 136.49755,366.69044 136.49756,368.75293 C 136.49755,370.8047 137.15014,372.46168 138.45532,373.72388 C 139.76049,374.98609 141.48192,375.61719 143.61963,375.61719 L 143.61963,375.61719 z M 177.71533,375.875 L 177.71533,380 L 160.55469,380 L 160.55469,357.48975 L 166.16211,357.48975 L 166.16211,375.875 L 177.71533,375.875 z M 192.79736,357.19971 C 196.63231,357.19973 199.7368,358.3572 202.11084,360.67212 C 204.48484,362.98708 205.67185,365.68068 205.67188,368.75293 C 205.67185,371.86817 204.46872,374.56983 202.0625,376.85791 C 199.65623,379.146 196.56785,380.29004 192.79736,380.29004 C 188.98388,380.29004 185.87939,379.15137 183.48389,376.87402 C 181.08838,374.59669 179.89062,371.88966 179.89062,368.75293 C 179.89062,365.66994 181.08032,362.97365 183.45972,360.66406 C 185.8391,358.35451 188.95165,357.19973 192.79736,357.19971 L 192.79736,357.19971 z M 192.79736,375.61719 C 194.9243,375.61719 196.63768,374.98609 197.9375,373.72388 C 199.23728,372.46168 199.88719,370.8047 199.88721,368.75293 C 199.88719,366.69044 199.23728,365.03078 197.9375,363.77393 C 196.63768,362.51711 194.9243,361.88869 192.79736,361.88867 C 190.65966,361.88869 188.93822,362.51711 187.63306,363.77393 C 186.32787,365.03078 185.67529,366.69044 185.67529,368.75293 C 185.67529,370.8047 186.32787,372.46168 187.63306,373.72388 C 188.93822,374.98609 190.65966,375.61719 192.79736,375.61719 L 192.79736,375.61719 z M 221.8335,365.83643 L 229.06836,357.48975 L 233.95068,357.48975 L 233.95068,380 L 228.34326,380 L 228.34326,365.94922 L 222.26855,373.00684 L 221.41455,373.00684 L 215.33984,365.94922 L 215.33984,380 L 209.73242,380 L 209.73242,357.48975 L 214.61475,357.48975 L 221.8335,365.83643 z M 238.92969,357.48975 L 248.66211,357.48975 C 250.98241,357.48977 252.80589,358.04836 254.13257,359.16553 C 255.45921,360.28273 256.12254,361.60402 256.12256,363.12939 C 256.12254,365.08449 255.09666,366.58302 253.04492,367.625 C 254.59178,368.03322 255.7761,368.75294 256.5979,369.78418 C 257.41966,370.81544 257.83054,372.01856 257.83057,373.39355 C 257.83054,375.34864 257.15916,376.93848 255.81641,378.16309 C 254.47361,379.3877 252.49705,380 249.88672,380 L 238.92969,380 L 238.92969,357.48975 z M 244.53711,361.61475 L 244.53711,366.43262 L 247.46973,366.43262 C 248.37206,366.43263 249.07567,366.20167 249.58057,365.73975 C 250.08544,365.27785 250.33788,364.69777 250.33789,363.99951 C 250.33788,363.31203 250.08544,362.74269 249.58057,362.2915 C 249.07567,361.84035 248.37206,361.61476 247.46973,361.61475 L 244.53711,361.61475 z M 244.53711,370.55762 L 244.53711,375.875 L 247.69531,375.875 C 249.18846,375.875 250.26268,375.66822 250.91797,375.25464 C 251.57323,374.84107 251.90086,374.12403 251.90088,373.10352 C 251.90086,372.31934 251.58934,371.69898 250.96631,371.24243 C 250.34325,370.7859 249.51073,370.55763 248.46875,370.55762 L 244.53711,370.55762 z M 267.80469,357.48975 L 267.80469,380 L 262.19727,380 L 262.19727,357.48975 L 267.80469,357.48975 z M 286.18994,357.48975 L 296.18018,380 L 290.15381,380 L 288.30078,375.55273 L 278.22998,375.55273 L 276.5542,380 L 270.6084,380 L 279.68018,357.48975 L 286.18994,357.48975 z M 286.64111,371.62109 L 283.01562,362.87158 L 279.7124,371.62109 L 286.64111,371.62109 z"
       style="font-size:33px;font-style:normal;font-weight:bold;text-align:center;text-anchor:middle;fill:#000000;stroke:none;font-family:Gill Sans MT" />
  </g>
</svg>
